<svg width="16" height="16" viewBox="0 0 16 16" fill="none" xmlns="http://www.w3.org/2000/svg">
<path d="M13.5005 4.5H2.50049C2.22435 4.5 2.00049 4.72386 2.00049 5V13C2.00049 13.2761 2.22435 13.5 2.50049 13.5H13.5005C13.7766 13.5 14.0005 13.2761 14.0005 13V5C14.0005 4.72386 13.7766 4.5 13.5005 4.5Z" stroke="#242424" stroke-linecap="round" stroke-linejoin="round"/>
<path d="M10.5 4.5V3.5C10.5 3.23478 10.3946 2.98043 10.2071 2.79289C10.0196 2.60536 9.76522 2.5 9.5 2.5H6.5C6.23478 2.5 5.98043 2.60536 5.79289 2.79289C5.60536 2.98043 5.5 3.23478 5.5 3.5V4.5" stroke="#242424" stroke-linecap="round" stroke-linejoin="round"/>
<path d="M8 7.25V10.75" stroke="#242424" stroke-linecap="round" stroke-linejoin="round"/>
<path d="M9.75 9H6.25" stroke="#242424" stroke-linecap="round" stroke-linejoin="round"/>
</svg>
