<svg width="33" height="32" viewBox="0 0 33 32" fill="none" xmlns="http://www.w3.org/2000/svg">
<circle cx="16.5" cy="16" r="10" fill="#1D4FA3"/>
<g clip-path="url(#clip0_26517_138204)">
<path d="M12.4803 15.7834L12.4803 15.7834L16.5971 11.6646C17.019 11.2611 17.5959 11.05 18.1738 11.05C19.608 11.05 20.4031 12.2112 20.4031 13.2578C20.4031 13.8535 20.1715 14.4131 19.7502 14.8342L19.7502 14.8342L15.9689 18.6174L15.9689 18.6174C15.6975 18.889 15.324 19.0258 14.949 19.0258C14.3737 19.0258 14.0154 18.7703 13.7993 18.4653C13.5813 18.1577 13.5074 17.7985 13.5074 17.5975C13.5074 17.2279 13.648 16.8588 13.9291 16.5775C13.9291 16.5775 13.9291 16.5775 13.9291 16.5775L16.7104 13.7963L16.7104 13.7963C16.8076 13.699 16.935 13.6504 17.0623 13.6504C17.3284 13.6504 17.5602 13.8648 17.5602 14.1484C17.5602 14.2759 17.5115 14.4033 17.4143 14.5005C17.4143 14.5005 17.4143 14.5005 17.4143 14.5005L14.633 17.2818L14.633 17.2818C14.546 17.3688 14.5026 17.4832 14.5026 17.5974C14.5026 17.8553 14.7132 18.0437 14.9488 18.0437C15.0631 18.0437 15.1774 18.0001 15.2646 17.913L15.2647 17.913L19.0459 14.1298L19.0459 14.1298C19.2787 13.8968 19.4071 13.5868 19.4071 13.2577C19.4071 12.6815 18.9688 12.0353 18.1742 12.0353C17.8558 12.0353 17.5358 12.1514 17.3018 12.3852L17.3018 12.3853L13.1834 16.5037L13.1834 16.5037C12.8019 16.8854 12.5918 17.3928 12.5918 17.9324C12.5918 18.878 13.3106 19.9342 14.6125 19.9342C15.1346 19.9342 15.6586 19.744 16.0412 19.3615L16.0412 19.3615L19.1565 16.2443C19.1565 16.2443 19.1565 16.2443 19.1565 16.2443C19.2537 16.147 19.3811 16.0984 19.5084 16.0984C19.7745 16.0984 20.0062 16.3129 20.0062 16.5965C20.0062 16.724 19.9576 16.8513 19.8604 16.9486L19.8604 16.9486L16.7451 20.0658L16.7451 20.0658C16.1753 20.6368 15.4185 20.95 14.5957 20.95C12.9473 20.95 11.5969 19.6017 11.5969 17.916C11.5969 17.1103 11.9106 16.3529 12.4803 15.7834Z" fill="white" stroke="#1D4FA3" stroke-width="0.1"/>
</g>
<defs>
<clipPath id="clip0_26517_138204">
<rect width="10" height="10" fill="white" transform="translate(11 11)"/>
</clipPath>
</defs>
</svg>
