<svg width="16" height="16" viewBox="0 0 16 16" fill="none" xmlns="http://www.w3.org/2000/svg">
<path d="M7.99963 11C10.7611 11 12.9996 8.76142 12.9996 6C12.9996 3.23858 10.7611 1 7.99963 1C5.23821 1 2.99963 3.23858 2.99963 6C2.99963 8.76142 5.23821 11 7.99963 11Z" stroke="#242424" stroke-linecap="round" stroke-linejoin="round"/>
<path d="M7.99963 9C9.65649 9 10.9996 7.65685 10.9996 6C10.9996 4.34315 9.65649 3 7.99963 3C6.34278 3 4.99963 4.34315 4.99963 6C4.99963 7.65685 6.34278 9 7.99963 9Z" stroke="#242424" stroke-linecap="round" stroke-linejoin="round"/>
<path d="M11 9.99969V15L7.99956 13.5L5 15V10.0001" stroke="#242424" stroke-linecap="round" stroke-linejoin="round"/>
</svg>
