<svg width="25" height="25" viewBox="0 0 25 25" fill="none" xmlns="http://www.w3.org/2000/svg">
<rect width="25" height="25" rx="8" fill="#E9E9E9"/>
<path d="M18.25 6.25H7.75C6.925 6.25 6.25 6.925 6.25 7.75V18.25C6.25 19.075 6.925 19.75 7.75 19.75H18.25C19.075 19.75 19.75 19.075 19.75 18.25V7.75C19.75 6.925 19.075 6.25 18.25 6.25ZM11.125 12.625C11.125 13.225 10.6 13.75 10 13.75H9.25V15.25H8.125V10.75H10C10.6 10.75 11.125 11.275 11.125 11.875V12.625ZM14.875 14.125C14.875 14.725 14.35 15.25 13.75 15.25H11.875V10.75H13.75C14.35 10.75 14.875 11.275 14.875 11.875V14.125ZM17.875 11.875H16.75V12.625H17.875V13.75H16.75V15.25H15.625V10.75H17.875V11.875ZM13 11.875H13.75V14.125H13V11.875ZM9.25 11.875H10V12.625H9.25V11.875Z" fill="#213660"/>
</svg>
