<svg xmlns="http://www.w3.org/2000/svg" width="60" height="61" viewBox="0 0 60 61" fill="none">
  <path d="M56.25 28.3828H41.25V19.0078H51.2306C51.6053 19.0078 51.9714 19.1201 52.2817 19.3302C52.592 19.5403 52.8323 19.8385 52.9715 20.1865L56.25 28.3828Z" stroke="#242424" stroke-width="2" stroke-linecap="round" stroke-linejoin="round"/>
  <path d="M3.75 34.0078H41.25" stroke="#242424" stroke-width="2" stroke-linecap="round" stroke-linejoin="round"/>
  <path d="M44.0625 50.8828C47.1691 50.8828 49.6875 48.3644 49.6875 45.2578C49.6875 42.1512 47.1691 39.6328 44.0625 39.6328C40.9559 39.6328 38.4375 42.1512 38.4375 45.2578C38.4375 48.3644 40.9559 50.8828 44.0625 50.8828Z" stroke="#242424" stroke-width="2" stroke-miterlimit="10"/>
  <path d="M15.9375 50.8828C19.0441 50.8828 21.5625 48.3644 21.5625 45.2578C21.5625 42.1512 19.0441 39.6328 15.9375 39.6328C12.8309 39.6328 10.3125 42.1512 10.3125 45.2578C10.3125 48.3644 12.8309 50.8828 15.9375 50.8828Z" stroke="#242424" stroke-width="2" stroke-miterlimit="10"/>
  <path d="M38.4375 45.2578H21.5625" stroke="#242424" stroke-width="2" stroke-linecap="round" stroke-linejoin="round"/>
  <path d="M10.3125 45.2578H5.625C5.12772 45.2578 4.65081 45.0603 4.29917 44.7086C3.94754 44.357 3.75 43.8801 3.75 43.3828V17.1328C3.75 16.6355 3.94754 16.1586 4.29917 15.807C4.65081 15.4554 5.12772 15.2578 5.625 15.2578H41.25V40.3863" stroke="#242424" stroke-width="2" stroke-linecap="round" stroke-linejoin="round"/>
  <path d="M41.25 40.3863V28.3828H56.25V43.3828C56.25 43.8801 56.0525 44.357 55.7008 44.7086C55.3492 45.0603 54.8723 45.2578 54.375 45.2578H49.6875" stroke="#242424" stroke-width="2" stroke-linecap="round" stroke-linejoin="round"/>
</svg>